<mxfile host="app.diagrams.net" modified="2022-03-30T07:17:35.204Z" agent="5.0 (X11)" etag="C0pmt7KvGialDV1yv3AO" version="17.2.5" type="github">
  <diagram id="WMRxFUDG_etUpyFxwlcA" name="Page-1">
    <mxGraphModel dx="760" dy="347" grid="1" gridSize="10" guides="1" tooltips="1" connect="1" arrows="1" fold="1" page="1" pageScale="1" pageWidth="827" pageHeight="1169" math="0" shadow="0">
      <root>
        <mxCell id="0" />
        <mxCell id="1" parent="0" />
        <mxCell id="GB6gtYQ_iOAVg2I0iTZo-1" value="" style="ellipse;whiteSpace=wrap;html=1;" vertex="1" parent="1">
          <mxGeometry x="400" y="360" width="80" height="80" as="geometry" />
        </mxCell>
        <mxCell id="GB6gtYQ_iOAVg2I0iTZo-2" value="" style="shape=flexArrow;endArrow=classic;startArrow=classic;html=1;rounded=0;entryX=0.885;entryY=0.175;entryDx=0;entryDy=0;entryPerimeter=0;exitX=0;exitY=1;exitDx=0;exitDy=0;" edge="1" parent="1" source="GB6gtYQ_iOAVg2I0iTZo-1" target="GB6gtYQ_iOAVg2I0iTZo-1">
          <mxGeometry width="100" height="100" relative="1" as="geometry">
            <mxPoint x="430" y="440" as="sourcePoint" />
            <mxPoint x="500" y="380" as="targetPoint" />
          </mxGeometry>
        </mxCell>
        <mxCell id="GB6gtYQ_iOAVg2I0iTZo-3" value="" style="shape=flexArrow;endArrow=classic;startArrow=classic;html=1;rounded=0;exitX=0;exitY=0;exitDx=0;exitDy=0;entryX=1;entryY=1;entryDx=0;entryDy=0;" edge="1" parent="1" source="GB6gtYQ_iOAVg2I0iTZo-1" target="GB6gtYQ_iOAVg2I0iTZo-1">
          <mxGeometry width="100" height="100" relative="1" as="geometry">
            <mxPoint x="430" y="400" as="sourcePoint" />
            <mxPoint x="530" y="300" as="targetPoint" />
          </mxGeometry>
        </mxCell>
        <mxCell id="GB6gtYQ_iOAVg2I0iTZo-4" value="" style="whiteSpace=wrap;html=1;aspect=fixed;" vertex="1" parent="1">
          <mxGeometry x="160" y="360" width="80" height="80" as="geometry" />
        </mxCell>
        <mxCell id="GB6gtYQ_iOAVg2I0iTZo-5" value="THORIN" style="text;html=1;strokeColor=none;fillColor=none;align=center;verticalAlign=middle;whiteSpace=wrap;rounded=0;" vertex="1" parent="1">
          <mxGeometry x="170" y="385" width="60" height="30" as="geometry" />
        </mxCell>
        <mxCell id="GB6gtYQ_iOAVg2I0iTZo-6" value="" style="verticalLabelPosition=bottom;verticalAlign=top;html=1;shape=mxgraph.basic.no_symbol" vertex="1" parent="1">
          <mxGeometry x="180" y="240" width="40" height="40" as="geometry" />
        </mxCell>
        <mxCell id="GB6gtYQ_iOAVg2I0iTZo-7" value="" style="endArrow=none;html=1;rounded=0;exitX=0.5;exitY=0;exitDx=0;exitDy=0;entryX=0.5;entryY=1;entryDx=0;entryDy=0;entryPerimeter=0;" edge="1" parent="1" source="GB6gtYQ_iOAVg2I0iTZo-4" target="GB6gtYQ_iOAVg2I0iTZo-6">
          <mxGeometry width="50" height="50" relative="1" as="geometry">
            <mxPoint x="190" y="350" as="sourcePoint" />
            <mxPoint x="240" y="300" as="targetPoint" />
          </mxGeometry>
        </mxCell>
        <mxCell id="GB6gtYQ_iOAVg2I0iTZo-9" value="&lt;h1 style=&quot;font-size: 14px&quot;&gt;Privé&lt;/h1&gt;&lt;div&gt;kvmstudpriv7037&lt;/div&gt;&lt;div&gt;10.244.37.1/24&lt;br&gt;&lt;/div&gt;" style="text;html=1;strokeColor=none;fillColor=none;spacing=5;spacingTop=-20;whiteSpace=wrap;overflow=hidden;rounded=0;" vertex="1" parent="1">
          <mxGeometry x="200" y="290" width="190" height="120" as="geometry" />
        </mxCell>
        <mxCell id="GB6gtYQ_iOAVg2I0iTZo-10" value="&lt;h1 style=&quot;font-size: 14px&quot;&gt;Privé&lt;/h1&gt;&lt;div&gt;kvmstudpriv7037&lt;/div&gt;&lt;div&gt;10.244.37.1/24&lt;br&gt;&lt;/div&gt;" style="text;html=1;strokeColor=none;fillColor=none;spacing=5;spacingTop=-20;whiteSpace=wrap;overflow=hidden;rounded=0;" vertex="1" parent="1">
          <mxGeometry x="220" y="450" width="190" height="120" as="geometry" />
        </mxCell>
        <mxCell id="GB6gtYQ_iOAVg2I0iTZo-11" value="" style="shape=cube;whiteSpace=wrap;html=1;boundedLbl=1;backgroundOutline=1;darkOpacity=0.05;darkOpacity2=0.1;fontSize=14;" vertex="1" parent="1">
          <mxGeometry x="330" y="140" width="100" height="60" as="geometry" />
        </mxCell>
        <mxCell id="GB6gtYQ_iOAVg2I0iTZo-12" value="" style="shape=cube;whiteSpace=wrap;html=1;boundedLbl=1;backgroundOutline=1;darkOpacity=0.05;darkOpacity2=0.1;fontSize=14;" vertex="1" parent="1">
          <mxGeometry x="500" y="140" width="100" height="60" as="geometry" />
        </mxCell>
        <mxCell id="GB6gtYQ_iOAVg2I0iTZo-13" value="" style="endArrow=none;html=1;rounded=0;fontSize=14;exitX=1;exitY=0.5;exitDx=0;exitDy=0;exitPerimeter=0;entryX=1;entryY=1;entryDx=0;entryDy=0;" edge="1" parent="1" source="GB6gtYQ_iOAVg2I0iTZo-6" target="GB6gtYQ_iOAVg2I0iTZo-20">
          <mxGeometry width="50" height="50" relative="1" as="geometry">
            <mxPoint x="390" y="310" as="sourcePoint" />
            <mxPoint x="760" y="260" as="targetPoint" />
          </mxGeometry>
        </mxCell>
        <mxCell id="GB6gtYQ_iOAVg2I0iTZo-14" value="" style="endArrow=none;html=1;rounded=0;fontSize=14;entryX=0;entryY=0;entryDx=60;entryDy=60;entryPerimeter=0;" edge="1" parent="1" target="GB6gtYQ_iOAVg2I0iTZo-11">
          <mxGeometry width="50" height="50" relative="1" as="geometry">
            <mxPoint x="390" y="260" as="sourcePoint" />
            <mxPoint x="440" y="260" as="targetPoint" />
          </mxGeometry>
        </mxCell>
        <mxCell id="GB6gtYQ_iOAVg2I0iTZo-15" value="" style="endArrow=none;html=1;rounded=0;fontSize=14;entryX=0;entryY=0;entryDx=60;entryDy=60;entryPerimeter=0;" edge="1" parent="1" target="GB6gtYQ_iOAVg2I0iTZo-12">
          <mxGeometry width="50" height="50" relative="1" as="geometry">
            <mxPoint x="560" y="260" as="sourcePoint" />
            <mxPoint x="440" y="260" as="targetPoint" />
          </mxGeometry>
        </mxCell>
        <mxCell id="GB6gtYQ_iOAVg2I0iTZo-16" value="APACHE" style="text;html=1;strokeColor=none;fillColor=none;align=center;verticalAlign=middle;whiteSpace=wrap;rounded=0;fontSize=14;" vertex="1" parent="1">
          <mxGeometry x="360" y="160" width="60" height="40" as="geometry" />
        </mxCell>
        <mxCell id="GB6gtYQ_iOAVg2I0iTZo-17" value="MQTT" style="text;html=1;strokeColor=none;fillColor=none;align=center;verticalAlign=middle;whiteSpace=wrap;rounded=0;fontSize=14;" vertex="1" parent="1">
          <mxGeometry x="530" y="160" width="60" height="40" as="geometry" />
        </mxCell>
        <mxCell id="GB6gtYQ_iOAVg2I0iTZo-18" value="10.144.37.10/24" style="text;html=1;strokeColor=none;fillColor=none;align=center;verticalAlign=middle;whiteSpace=wrap;rounded=0;fontSize=14;" vertex="1" parent="1">
          <mxGeometry x="270" y="230" width="120" height="30" as="geometry" />
        </mxCell>
        <mxCell id="GB6gtYQ_iOAVg2I0iTZo-20" value="10.144.37.20/24" style="text;html=1;strokeColor=none;fillColor=none;align=center;verticalAlign=middle;whiteSpace=wrap;rounded=0;fontSize=14;" vertex="1" parent="1">
          <mxGeometry x="450" y="230" width="110" height="30" as="geometry" />
        </mxCell>
        <mxCell id="GB6gtYQ_iOAVg2I0iTZo-21" value="" style="endArrow=none;html=1;rounded=0;fontSize=14;" edge="1" parent="1">
          <mxGeometry width="50" height="50" relative="1" as="geometry">
            <mxPoint x="440" y="260" as="sourcePoint" />
            <mxPoint x="440" y="360" as="targetPoint" />
          </mxGeometry>
        </mxCell>
        <mxCell id="GB6gtYQ_iOAVg2I0iTZo-22" value="10.144.37.1/24" style="text;html=1;strokeColor=none;fillColor=none;align=center;verticalAlign=middle;whiteSpace=wrap;rounded=0;fontSize=14;" vertex="1" parent="1">
          <mxGeometry x="440" y="330" width="110" height="30" as="geometry" />
        </mxCell>
        <mxCell id="GB6gtYQ_iOAVg2I0iTZo-23" value="" style="endArrow=none;html=1;rounded=0;fontSize=14;exitX=0.5;exitY=1;exitDx=0;exitDy=0;" edge="1" parent="1" source="GB6gtYQ_iOAVg2I0iTZo-4">
          <mxGeometry width="50" height="50" relative="1" as="geometry">
            <mxPoint x="390" y="450" as="sourcePoint" />
            <mxPoint x="200" y="520" as="targetPoint" />
          </mxGeometry>
        </mxCell>
        <mxCell id="GB6gtYQ_iOAVg2I0iTZo-24" value="" style="endArrow=none;html=1;rounded=0;fontSize=14;" edge="1" parent="1">
          <mxGeometry width="50" height="50" relative="1" as="geometry">
            <mxPoint x="200" y="520" as="sourcePoint" />
            <mxPoint x="560" y="520" as="targetPoint" />
          </mxGeometry>
        </mxCell>
        <mxCell id="GB6gtYQ_iOAVg2I0iTZo-25" value="" style="endArrow=none;html=1;rounded=0;fontSize=14;" edge="1" parent="1">
          <mxGeometry width="50" height="50" relative="1" as="geometry">
            <mxPoint x="440" y="520" as="sourcePoint" />
            <mxPoint x="440" y="440" as="targetPoint" />
          </mxGeometry>
        </mxCell>
        <mxCell id="GB6gtYQ_iOAVg2I0iTZo-26" value="10.4.37.10/24" style="text;html=1;strokeColor=none;fillColor=none;align=center;verticalAlign=middle;whiteSpace=wrap;rounded=0;fontSize=14;" vertex="1" parent="1">
          <mxGeometry x="440" y="440" width="110" height="30" as="geometry" />
        </mxCell>
        <mxCell id="GB6gtYQ_iOAVg2I0iTZo-27" value="" style="endArrow=classic;html=1;rounded=0;fontSize=14;exitX=1;exitY=1;exitDx=0;exitDy=0;" edge="1" parent="1" source="GB6gtYQ_iOAVg2I0iTZo-20">
          <mxGeometry width="50" height="50" relative="1" as="geometry">
            <mxPoint x="390" y="370" as="sourcePoint" />
            <mxPoint x="640" y="260" as="targetPoint" />
          </mxGeometry>
        </mxCell>
        <mxCell id="GB6gtYQ_iOAVg2I0iTZo-30" value="" style="endArrow=classic;html=1;rounded=0;fontSize=14;" edge="1" parent="1">
          <mxGeometry width="50" height="50" relative="1" as="geometry">
            <mxPoint x="560" y="520" as="sourcePoint" />
            <mxPoint x="640" y="520" as="targetPoint" />
          </mxGeometry>
        </mxCell>
      </root>
    </mxGraphModel>
  </diagram>
</mxfile>
